# xmcd
#
# Track frame offsets:
#	150
#	17374
#	39070
#	58093
#	80435
#	103026
#	125383
#	143293
#	168475
#	187009
#	214727
#	244862
#
# Disc length: 3563 seconds
#
# Revision: 1
# Processed by: cddbd v1.5.2PL0 Copyright (c) Steve Scherf et al.
# Submitted via: audiograbber 1.81.02
#
DISCID=950de90c
DTITLE=Chris Tomlin (www.gerth.de) - Hello Love
DYEAR=2008
DGENRE=Pop
TTITLE0=Sing, Sing, Sing
TTITLE1=Jesus Messiah
TTITLE2=You Lifted Me Out
TTITLE3=God Of This City
TTITLE4=I Will Rise
TTITLE5=Love
TTITLE6=Praise The Father, Praise The Son
TTITLE7=My Deliverer
TTITLE8=With Me
TTITLE9=Exalted (Yahweh)
TTITLE10=God Almighty
TTITLE11=All The Way My Savior Leads Me
EXTD=www.gerth.de - Art.-Nr. 980646
EXTT0=
EXTT1=
EXTT2=
EXTT3=
EXTT4=
EXTT5=
EXTT6=
EXTT7=
EXTT8=
EXTT9=
EXTT10=
EXTT11=
PLAYORDER=
